<?xml version="1.0" standalone="no"?>
<!DOCTYPE svg PUBLIC "-//W3C//DTD SVG 20010904//EN"
 "http://www.w3.org/TR/2001/REC-SVG-20010904/DTD/svg10.dtd">
<svg version="1.0" xmlns="http://www.w3.org/2000/svg"
 width="96.000000pt" height="96.000000pt" viewBox="0 0 96.000000 96.000000"
 preserveAspectRatio="xMidYMid meet">
<metadata>
Created by potrace 1.14, written by Peter Selinger 2001-2017
</metadata>
<g transform="translate(0.000000,96.000000) scale(0.100000,-0.100000)"
fill="#000000" stroke="none">
<path d="M219 792 c-122 -64 -157 -235 -68 -331 l20 -22 -30 -34 c-35 -41 -49
-107 -31 -159 14 -44 69 -93 113 -101 18 -4 148 -5 289 -3 l256 3 43 31 c60
43 89 103 85 174 -5 100 -72 173 -172 187 -33 4 -54 14 -66 29 -10 12 -40 32
-67 45 -41 20 -53 32 -66 67 -48 123 -188 176 -306 114z"/>
</g>
</svg>
